<svg width="42" height="42" viewBox="0 0 42 42" fill="none" xmlns="http://www.w3.org/2000/svg">
<g clip-path="url(#clip0_1_1683)">
<path d="M0.981956 19.25C0.981956 24.3432 4.08856 25.6641 5.56346 26.005C5.9732 27.4381 6.53646 28.8228 7.24346 30.135C6.50759 31.048 5.38028 31.5551 4.20896 31.5C3.82236 31.5 3.50896 31.8134 3.50896 32.2C3.50896 32.5866 3.82236 32.9 4.20896 32.9C8.33896 32.9 8.40896 37.6012 8.40896 37.8V37.8105C8.41186 38.1971 8.72761 38.5082 9.11421 38.5053C9.50081 38.5024 9.81186 38.1866 9.80896 37.8C9.83805 36.671 10.1564 35.5683 10.7337 34.5975C12.6308 36.2344 15.0593 37.1241 17.565 37.1C21.2204 37.1 24.2605 35.4305 26.6125 32.1447C27.2809 32.2479 27.9637 32.2047 28.6138 32.018C29.6774 33.8624 31.8779 34.7225 33.9104 34.0884C35.9429 33.4542 37.2639 31.4954 37.0901 29.3734C38.5659 29.553 39.9653 28.6728 40.4426 27.2648C40.9199 25.8568 40.3441 24.3071 39.0634 23.5522C39.4564 22.4281 38.9817 21.1844 37.9396 20.6081C36.8976 20.0317 35.5918 20.2907 34.8486 21.2211C34.1053 22.1514 34.1411 23.4822 34.9334 24.3712C34.6625 24.7302 34.4733 25.1439 34.379 25.5836C33.8054 25.3311 33.1856 25.2005 32.559 25.2C31.565 25.2 31.866 25.4443 31.6441 25.0236C32.8586 24.1136 34.064 22.4105 34.064 19.25C34.064 17.4531 33.7455 15.2509 31.9731 14.9989C34.4898 11.0993 35.4948 6.41439 34.799 1.82561L34.519 0.548108C34.4475 0.226616 34.1616 -0.00158108 33.8323 8.25016e-06H1.18566C0.857631 6.45442e-05 0.573638 0.227899 0.502456 0.548108L0.208456 1.87811C-0.47481 6.45278 0.534463 11.1196 3.04696 15.0031C1.29416 15.2782 0.981956 17.4692 0.981956 19.25ZM2.38196 19.25C2.38196 17.0184 2.92306 16.5361 3.08826 16.4416C3.43196 16.2463 4.06336 16.5249 4.36226 16.73C4.39035 19.3101 4.65537 21.8822 5.15396 24.4139C3.91286 23.9001 2.38196 22.5911 2.38196 19.25ZM9.10896 34.6311C8.6699 33.6221 7.93018 32.7731 6.99076 32.2C7.92248 31.6179 8.65985 30.7716 9.10896 29.7689C9.54802 30.7779 10.2877 31.6269 11.2272 32.2C10.2947 32.7813 9.55709 33.6278 9.10896 34.6311ZM17.565 35.7C15.4189 35.7206 13.337 34.9691 11.699 33.5825C12.3769 33.1154 13.186 32.8764 14.009 32.9C14.3956 32.9 14.709 32.5866 14.709 32.2C14.709 31.8134 14.3956 31.5 14.009 31.5C9.87896 31.5 9.80896 26.7988 9.80896 26.6V26.5895C9.80606 26.2029 9.49031 25.8919 9.10371 25.8948C8.71711 25.8977 8.40606 26.2134 8.40896 26.6C8.3891 27.2906 8.26787 27.9746 8.04916 28.63C6.21166 24.7835 5.78886 20.377 5.74406 16.03C7.42496 12.9766 9.50784 10.1625 11.937 7.66291C13.6385 8.66858 15.5892 9.17396 17.565 9.12101C20.9698 9.12101 23.179 9.14761 24.8219 9.58301C26.5819 11.6426 28.1129 13.8874 29.388 16.2778C29.3799 18.4165 29.2122 20.5516 28.8861 22.6653C26.4306 21.813 23.7372 23.0286 22.7519 25.4337C21.7667 27.8389 22.8332 30.5948 25.181 31.71C23.1482 34.3469 20.5946 35.7 17.565 35.7ZM12.9765 6.65001C14.3635 5.34206 15.8824 4.18155 17.509 3.18711C19.634 4.50114 21.5803 6.08436 23.2994 7.89741C18.8257 7.41581 15.9991 8.32581 12.9765 6.65001ZM23.809 27.3C23.809 25.367 25.376 23.8 27.309 23.8C29.242 23.8 30.809 25.367 30.809 27.3C30.809 29.233 29.242 30.8 27.309 30.8C25.3769 30.7977 23.8113 29.232 23.809 27.3ZM36.759 21.7C37.3389 21.7 37.809 22.1701 37.809 22.75C37.809 23.3299 37.3389 23.8 36.759 23.8C36.1791 23.8 35.709 23.3299 35.709 22.75C35.709 22.1701 36.1791 21.7 36.759 21.7ZM35.709 26.25C35.7085 25.8305 35.8616 25.4254 36.1395 25.1111C36.8664 25.3142 37.6466 25.1581 38.2395 24.6911C38.806 24.966 39.1797 25.5258 39.2163 26.1545C39.2528 26.7832 38.9466 27.3826 38.4157 27.7213C37.8848 28.06 37.2122 28.0853 36.6575 27.7872C36.4289 27.3103 36.1193 26.8767 35.7426 26.5055C35.7247 26.4214 35.7135 26.3359 35.709 26.25ZM35.709 29.75C35.7053 31.1462 34.783 32.3734 33.4428 32.7652C32.1027 33.1569 30.6646 32.6198 29.9095 31.4454C31.5441 30.4265 32.4253 28.5404 32.1579 26.6329C33.0551 26.5149 33.9597 26.7897 34.6398 27.3867C35.32 27.9837 35.7096 28.845 35.709 29.75ZM32.664 19.25C32.664 21.4088 32.0417 22.9635 30.8195 23.8889C30.6254 23.6893 30.4146 23.5067 30.1895 23.3429C30.565 21.1401 30.7624 18.9106 30.7796 16.6761C31.1149 16.4871 31.6371 16.2561 31.9605 16.4416C32.1236 16.5354 32.664 17.0163 32.664 19.25ZM33.2723 1.40001C34.2141 6.14414 33.1341 11.0661 30.2924 14.98C26.6881 8.58131 21.3954 3.67991 17.208 1.40001H33.2723ZM1.74706 1.40001H11.2944C9.73253 2.4345 8.33951 3.70357 7.16436 5.16251C6.92273 5.46444 6.97162 5.90508 7.27356 6.14671C7.57549 6.38833 8.01613 6.33944 8.25776 6.03751C9.82241 4.10544 11.7934 2.5417 14.0307 1.45741C14.7418 1.73689 15.4378 2.05326 16.116 2.40521C10.2402 6.18801 6.48746 11.8391 4.72626 14.98C1.88057 11.0679 0.800376 6.14409 1.74706 1.40001Z" fill="#F73E7B"/>
<path d="M9.42184 15.2146C10.1518 14.8477 10.9981 14.7877 11.7724 15.048L14.4877 15.9531C14.855 16.0753 15.2518 15.8766 15.3739 15.5093C15.4961 15.142 15.2974 14.7453 14.9301 14.6231L12.2148 13.7201C11.0885 13.3417 9.8576 13.4292 8.79604 13.963C8.5703 14.0736 8.42121 14.2968 8.40544 14.5477C8.38967 14.7986 8.50964 15.0386 8.71975 15.1767C8.92987 15.3147 9.19785 15.3294 9.42184 15.2153V15.2146Z" fill="#F73E7B"/>
<path d="M20.3089 15.9887C20.472 15.9887 20.3089 16.0272 23.2489 15.0479C24.0232 14.7869 24.8698 14.8469 25.5995 15.2145C25.8235 15.3287 26.0915 15.3139 26.3016 15.1759C26.5117 15.0379 26.6317 14.7978 26.6159 14.5469C26.6001 14.296 26.451 14.0729 26.2253 13.9622C25.1635 13.4285 23.9324 13.341 22.8058 13.7193L20.0912 14.6244C19.7658 14.7325 19.5666 15.0604 19.6206 15.399C19.6747 15.7377 19.966 15.9873 20.3089 15.9887Z" fill="#F73E7B"/>
<path d="M14.6705 18.6753C14.5464 18.3099 14.15 18.1139 13.7843 18.2371C13.7598 18.2448 11.3728 19.0232 9.52903 17.64C9.25178 17.4333 8.86517 17.4601 8.61903 17.703C8.37325 17.9573 8.05582 18.1306 7.70903 18.2C7.32243 18.2 7.00903 18.5134 7.00903 18.9C7.00903 19.2866 7.32243 19.6 7.70903 19.6C8.23175 19.5719 8.73394 19.3873 9.15033 19.0701C9.25603 19.1331 9.36033 19.1891 9.46813 19.243C9.37427 19.3854 9.25202 19.5069 9.10903 19.6C8.72243 19.6 8.40903 19.9134 8.40903 20.3C8.40903 21.1603 9.70193 21.49 10.8401 19.7267C11.968 19.9571 13.1356 19.9005 14.2358 19.5622C14.6002 19.4366 14.7945 19.0402 14.6705 18.6753Z" fill="#F73E7B"/>
<path d="M25.489 17.6399C23.6445 19.0231 21.2575 18.2454 21.2358 18.2377C20.8714 18.1172 20.478 18.3124 20.3536 18.6755C20.2293 19.0385 20.4204 19.434 20.7822 19.5621C21.8823 19.901 23.0501 19.9576 24.1779 19.7266C24.5335 20.2789 25.1432 21 25.909 21C26.2989 21.0019 26.6179 20.6898 26.6244 20.2999C26.6283 20.1157 26.5579 19.9376 26.4289 19.8058C26.3 19.6741 26.1234 19.5999 25.9391 19.5999C25.784 19.5109 25.6517 19.387 25.5527 19.238C25.6577 19.1841 25.7627 19.1295 25.8677 19.0665C26.2837 19.385 26.7859 19.5709 27.309 19.5999C27.6956 19.5999 28.009 19.2865 28.009 18.8999C28.009 18.5133 27.6956 18.1999 27.309 18.1999C26.9641 18.1304 26.6485 17.9578 26.4039 17.705C26.1576 17.4587 25.7677 17.431 25.489 17.6399Z" fill="#F73E7B"/>
<path d="M15.0206 24.3824C16.5267 25.39 18.4916 25.39 19.9976 24.3824C20.2057 24.2436 20.3239 24.0044 20.3078 23.7548C20.2916 23.5052 20.1435 23.2832 19.9193 23.1724C19.695 23.0616 19.4287 23.0788 19.2206 23.2176C18.1847 23.91 16.8336 23.91 15.7976 23.2176C15.476 23.0031 15.0413 23.0899 14.8267 23.4115C14.6122 23.7332 14.699 24.1679 15.0206 24.3824Z" fill="#F73E7B"/>
<path d="M20.7991 27.7199C20.3276 27.6155 19.8723 27.4483 19.4453 27.2229C17.6253 26.3948 17.4034 26.3941 15.5799 27.2229C15.1529 27.4483 14.6975 27.6155 14.2261 27.7199C13.991 27.7015 13.7589 27.7814 13.5851 27.9406C13.4112 28.0999 13.3113 28.3242 13.3091 28.5599C13.3091 29.5476 15.2866 30.7999 17.5091 30.7999C19.7316 30.7999 21.7091 29.5469 21.7091 28.5599C21.707 28.3254 21.608 28.1022 21.4357 27.9431C21.2634 27.7841 21.033 27.7033 20.7991 27.7199ZM15.3251 28.8595C16.0257 28.5078 16.7567 28.2201 17.5091 27.9999C18.2624 28.2206 18.9945 28.5082 19.6966 28.8595C18.3272 29.5798 16.691 29.5798 15.3216 28.8595H15.3251Z" fill="#F73E7B"/>
<path d="M18.2089 32.2H16.8089C16.4223 32.2 16.1089 32.5134 16.1089 32.8999C16.1089 33.2865 16.4223 33.5999 16.8089 33.5999H18.2089C18.5955 33.5999 18.9089 33.2865 18.9089 32.8999C18.9089 32.5134 18.5955 32.2 18.2089 32.2Z" fill="#F73E7B"/>
<path d="M5.60894 8.4C5.99554 8.4 6.30894 8.0866 6.30894 7.7C6.30894 7.3134 5.99554 7 5.60894 7C5.22234 7 4.90894 7.3134 4.90894 7.7C4.90894 8.0866 5.22234 8.4 5.60894 8.4Z" fill="#F73E7B"/>
<path d="M41.3091 37.1001C41.3091 35.1671 39.7421 33.6001 37.8091 33.6001C35.8761 33.6001 34.3091 35.1671 34.3091 37.1001C34.3091 39.0331 35.8761 40.6001 37.8091 40.6001C39.7411 40.5978 41.3068 39.0321 41.3091 37.1001ZM35.7091 37.1001C35.7091 35.9403 36.6493 35.0001 37.8091 35.0001C38.9689 35.0001 39.9091 35.9403 39.9091 37.1001C39.9091 38.2599 38.9689 39.2001 37.8091 39.2001C36.6493 39.2001 35.7091 38.2599 35.7091 37.1001Z" fill="#F73E7B"/>
<path d="M32.2088 37.1C32.2088 35.9402 31.2686 35 30.1088 35C28.949 35 28.0088 35.9402 28.0088 37.1C28.0088 38.2598 28.949 39.2 30.1088 39.2C31.2686 39.2 32.2088 38.2598 32.2088 37.1ZM29.4088 37.1C29.4088 36.7134 29.7222 36.4 30.1088 36.4C30.4954 36.4 30.8088 36.7134 30.8088 37.1C30.8088 37.4866 30.4954 37.8 30.1088 37.8C29.7222 37.8 29.4088 37.4866 29.4088 37.1Z" fill="#F73E7B"/>
<path d="M28.0089 25.1999C27.2598 25.1778 26.5347 25.4657 26.0047 25.9957C25.4747 26.5256 25.1868 27.2508 25.2089 27.9999C25.2089 28.3865 25.5224 28.6999 25.909 28.6999C26.2955 28.6999 26.6089 28.3865 26.6089 27.9999C26.585 27.621 26.7253 27.2502 26.9942 26.9821C27.263 26.714 27.6343 26.5748 28.0132 26.5999C28.3997 26.5988 28.7122 26.2844 28.711 25.8978C28.7099 25.5112 28.3955 25.1988 28.0089 25.1999Z" fill="#F73E7B"/>
<path d="M3.50884 35C3.12224 35 2.80884 35.3134 2.80884 35.7V37.1C2.80884 37.4866 3.12224 37.8 3.50884 37.8C3.89544 37.8 4.20884 37.4866 4.20884 37.1V35.7C4.20884 35.3134 3.89544 35 3.50884 35Z" fill="#F73E7B"/>
<path d="M2.80884 41.2999C2.80884 41.6865 3.12224 41.9999 3.50884 41.9999C3.89544 41.9999 4.20884 41.6865 4.20884 41.2999V39.8999C4.20884 39.5134 3.89544 39.2 3.50884 39.2C3.12224 39.2 2.80884 39.5134 2.80884 39.8999V41.2999Z" fill="#F73E7B"/>
<path d="M4.90899 39.2H6.30899C6.69559 39.2 7.00899 38.8866 7.00899 38.5C7.00899 38.1134 6.69559 37.8 6.30899 37.8H4.90899C4.52239 37.8 4.20898 38.1134 4.20898 38.5C4.20898 38.8866 4.52239 39.2 4.90899 39.2Z" fill="#F73E7B"/>
<path d="M2.10903 37.8H0.709033C0.322434 37.8 0.0090332 38.1134 0.0090332 38.5C0.0090332 38.8866 0.322434 39.2 0.709033 39.2H2.10903C2.49563 39.2 2.80903 38.8866 2.80903 38.5C2.80903 38.1134 2.49563 37.8 2.10903 37.8Z" fill="#F73E7B"/>
</g>
<defs>
<clipPath id="clip0_1_1683">
<rect width="42" height="42" fill="white"/>
</clipPath>
</defs>
</svg>
