<svg width="42" height="42" viewBox="0 0 42 42" fill="none" xmlns="http://www.w3.org/2000/svg">
<g clip-path="url(#clip0_1_1670)">
<path d="M7.45582 24.3569C7.43687 24.3569 7.41776 24.3561 7.39857 24.3543C7.06019 24.3231 6.81131 24.0235 6.84248 23.6852C7.13754 20.4898 11.552 18.9076 12.4129 18.7139C16.4381 17.2427 17.9617 16.1219 16.8162 11.024C16.7417 10.6924 16.9501 10.3633 17.2816 10.2888C17.6135 10.2142 17.9423 10.4229 18.0167 10.7542C18.6633 13.6317 18.5154 15.5459 17.5372 16.961C16.6182 18.2908 15.0406 19.0657 12.7931 19.8851C12.7603 19.8971 12.7265 19.9062 12.6923 19.9124C11.9264 20.0514 8.27925 21.507 8.06769 23.7983C8.03832 24.1174 7.77008 24.3569 7.45582 24.3569Z" fill="#F73E7B"/>
<path d="M17.7211 36.4665C16.8585 36.4665 15.996 36.3096 15.3239 35.9957C15.0159 35.8519 14.8829 35.4858 15.0267 35.1779C15.1705 34.87 15.5365 34.7369 15.8444 34.8807C16.8617 35.3558 18.5805 35.3558 19.5977 34.8807C19.9056 34.7372 20.2717 34.87 20.4155 35.1779C20.5593 35.4858 20.4263 35.8519 20.1184 35.9957C19.4463 36.3096 18.5836 36.4665 17.7211 36.4665Z" fill="#F73E7B"/>
<path d="M12.6249 27.2758C11.9287 27.2758 11.2324 27.2018 10.6899 27.0537C10.3622 26.9642 10.1689 26.6259 10.2584 26.2981C10.3479 25.9703 10.6864 25.7772 11.014 25.8666C11.8873 26.105 13.3625 26.105 14.2356 25.8666C14.5631 25.7771 14.9017 25.9702 14.9912 26.2981C15.0807 26.6259 14.8875 26.9642 14.5598 27.0537C14.0173 27.2018 13.3211 27.2758 12.6249 27.2758Z" fill="#F73E7B"/>
<path d="M22.8979 27.4388C22.2014 27.4388 21.5046 27.3648 20.9613 27.2168C20.6334 27.1276 20.4401 26.7894 20.5293 26.4616C20.6186 26.1336 20.957 25.9407 21.2846 26.0296C22.1598 26.268 23.6364 26.2679 24.5091 26.0297C24.8365 25.9402 25.1752 26.1333 25.2647 26.4612C25.3542 26.789 25.1609 27.1273 24.8332 27.2168C24.291 27.3647 23.5945 27.4388 22.8979 27.4388Z" fill="#F73E7B"/>
<path d="M40.3836 0.0731918C40.0843 -0.0874244 39.7113 0.0251218 39.5507 0.324534L34.4568 9.82156L31.6882 8.33689C31.2916 8.12525 30.8434 8.10474 30.4476 8.24067C27.2589 4.71909 22.7641 2.70909 18.0356 2.70909C13.6489 2.70909 9.49351 4.40926 6.33467 7.49632C6.0917 7.73388 6.08718 8.12336 6.32466 8.36634C6.56206 8.60931 6.95162 8.61382 7.19468 8.37635C10.1222 5.51519 13.9723 3.93947 18.0355 3.93947C22.4139 3.93947 26.5769 5.80115 29.5322 9.06286L28.8748 10.2896C28.5914 10.8208 28.6484 11.4432 28.9672 11.9072L26.0235 15.5357C25.9093 15.676 25.5618 16.103 25.6664 16.627C25.7101 16.846 25.8504 17.1546 26.2715 17.3812L33.5467 21.2813V24.7651C33.5467 28.3337 33.3667 31.1651 32.488 33.3835C31.5479 35.7576 29.8405 37.2574 27.1147 38.1035C26.4574 38.3077 26.1655 38.2502 26.0965 38.1842C26.0112 38.1024 25.9137 37.8033 26.1862 36.7253C27.0017 35.7507 27.6779 34.7356 28.1429 33.7657C28.2898 33.4593 28.1605 33.0918 27.854 32.945C27.5478 32.7981 27.1802 32.9272 27.0333 33.2338C26.5848 34.1695 25.9509 35.1083 25.208 35.99C25.1712 36.0237 25.1384 36.0619 25.1105 36.1042C22.8857 38.6972 19.7358 40.7693 17.6323 40.7693C17.5735 40.7693 17.5156 40.7677 17.4586 40.7645C17.4352 40.763 17.4119 40.763 17.3885 40.7645C15.8627 40.8514 13.5249 39.7104 11.4632 37.964C11.2282 37.8059 10.3424 37.0387 10.0002 36.5662C9.14283 35.1327 9.17121 33.7093 9.32174 31.5905C9.64789 26.9767 13.2193 25.0559 16.6731 23.1984C18.5267 22.2015 20.3066 21.2438 21.6083 19.9162C23.2517 22.7261 26.1283 23.944 28.6088 23.9519L28.6089 24.5406C28.6096 26.1714 28.6097 26.6635 28.5931 26.9625C28.5925 26.9739 28.5922 26.9852 28.5922 26.9966C28.5922 28.0285 28.4191 29.2085 28.0914 30.4089C28.0019 30.7367 28.1952 31.075 28.523 31.1644C28.5772 31.1793 28.6317 31.1863 28.6853 31.1863C28.9559 31.1863 29.2038 31.0065 29.2784 30.7329C29.6326 29.4349 29.8207 28.1493 29.8225 27.0136C29.8401 26.6814 29.8399 26.2115 29.8393 24.5403L29.839 23.3114C29.839 23.1388 29.7666 22.9743 29.6394 22.8577C29.5121 22.7412 29.3419 22.6837 29.1701 22.6985C26.8488 22.902 23.9199 21.7972 22.4527 18.8965C22.6234 18.6482 22.7795 18.3883 22.9179 18.1136C22.9243 18.1008 22.9296 18.0878 22.9351 18.0748C22.9363 18.0719 22.938 18.0693 22.9393 18.0664C22.9402 18.064 22.9411 18.0616 22.942 18.0593C22.9429 18.057 22.9438 18.0546 22.9446 18.0523C23.8523 15.7818 23.4245 12.7382 21.7981 9.90655C21.6289 9.61198 21.253 9.51034 20.9582 9.67941C20.6636 9.84863 20.5619 10.2247 20.7311 10.5193C22.1684 13.0219 22.5695 15.6595 21.807 17.5825C20.7815 19.5914 18.5026 20.8175 16.0901 22.1149C12.5173 24.0363 8.46796 26.2142 8.09407 31.5038C7.92992 33.8132 7.90351 35.485 8.96245 37.2291C8.97016 37.2431 9.5246 37.9408 9.79424 38.1648C9.08246 37.9137 8.1222 37.4374 7.10535 36.6391C5.3937 35.2956 2.52221 32.1758 2.52221 26.3774V19.4015C2.52221 16.2106 3.50395 13.14 5.36121 10.5216C5.55776 10.2445 5.49254 9.86045 5.21536 9.6639C4.93834 9.46727 4.55419 9.53265 4.35765 9.80975C2.35191 12.6373 1.29175 15.954 1.29175 19.4015V26.3774C1.29175 30.1009 2.41549 33.3849 4.54148 35.8745C6.30834 37.9436 8.45049 39.089 9.86618 39.4709C10.2356 39.5706 10.5565 39.6204 10.8283 39.6204C11.0635 39.6204 11.2617 39.583 11.4225 39.5085C13.2641 40.9142 15.4035 42.0001 17.2111 42C17.2824 42 17.3531 41.9983 17.4234 41.9949C19.0615 42.0738 21.2282 41.1485 23.3803 39.4517C23.8759 39.061 24.3555 38.6403 24.8114 38.1998C24.8659 38.5275 24.995 38.8331 25.2451 39.0728C25.5259 39.3417 25.8942 39.4758 26.3588 39.4758C26.6842 39.4758 27.0569 39.41 27.4795 39.2787C34.2278 37.1841 34.777 31.4665 34.777 24.7652V21.4735C35.2412 21.259 35.3974 20.7561 35.4487 20.5895L36.8414 16.131C36.8496 16.1311 36.8578 16.1318 36.866 16.1318C37.017 16.1318 37.1689 16.1096 37.3178 16.0648C37.7174 15.9446 38.0459 15.6763 38.2423 15.3098L38.9482 13.9953C39.3495 13.2392 39.0638 12.2942 38.3112 11.8887C38.3109 11.8885 38.3105 11.8882 38.3101 11.8881L35.5408 10.403L40.6346 0.906132C40.7956 0.60672 40.6831 0.233808 40.3836 0.0731918ZM34.2737 20.2249C34.2689 20.2403 34.2643 20.2544 34.2598 20.2675L32.7495 19.4579L33.311 17.5133C33.4052 17.1869 33.217 16.8457 32.8906 16.7514C32.5643 16.6574 32.2231 16.8454 32.1288 17.1718L31.6403 18.8633L29.6635 17.8036L30.8035 16.4621C31.0236 16.2032 30.9921 15.8149 30.7332 15.5949C30.4744 15.3749 30.086 15.4064 29.866 15.6652L28.5541 17.2088L26.9494 16.3486C26.958 16.3371 26.9678 16.3249 26.9785 16.3118L29.9604 12.636L35.6853 15.706L34.2737 20.2249ZM37.863 13.4158L37.1583 14.7281C37.1028 14.8318 37.0125 14.8719 36.9635 14.8866C36.9151 14.9012 36.8185 14.9175 36.7152 14.8621C36.7151 14.8621 36.715 14.862 36.7149 14.8619L30.4282 11.4906L30.0926 11.3107C29.9373 11.2278 29.8768 11.0255 29.9599 10.87L30.6637 9.55677C30.7225 9.44767 30.8393 9.38475 30.9574 9.38475C31.0088 9.38475 31.0605 9.39664 31.1078 9.42183L37.728 12.972C37.8869 13.0577 37.9468 13.2579 37.863 13.4158Z" fill="#F73E7B"/>
</g>
<defs>
<clipPath id="clip0_1_1670">
<rect width="42" height="42" fill="white"/>
</clipPath>
</defs>
</svg>
